G75*
%MOIN*%
%OFA0B0*%
%FSLAX25Y25*%
%IPPOS*%
%LPD*%
%AMOC8*
5,1,8,0,0,1.08239X$1,22.5*
%
%ADD10C,0.01600*%
%ADD11C,0.00600*%
%ADD12R,0.03937X0.04331*%
%ADD13R,0.04921X0.01969*%
%ADD14R,0.01969X0.04921*%
%ADD15C,0.07600*%
%ADD16R,0.04331X0.03937*%
%ADD17R,0.07600X0.07600*%
%ADD18R,0.04331X0.05906*%
%ADD19R,0.04756X0.04756*%
%ADD20C,0.04362*%
%ADD21C,0.05200*%
%ADD22R,0.03937X0.05512*%
%ADD23C,0.10000*%
%ADD24C,0.02400*%
%ADD25C,0.06600*%
%ADD26C,0.04000*%
D10*
X0403721Y0135701D02*
X0000000Y0135701D01*
X0000000Y0000000D01*
X0403721Y0000000D01*
X0403721Y0135701D01*
X0117600Y0024556D02*
X0117550Y0024506D01*
X0194853Y0038652D02*
X0124452Y0038652D01*
X0117000Y0031200D01*
X0117000Y0025056D01*
X0117550Y0024506D01*
X0193800Y0019800D02*
X0154200Y0019800D01*
X0140400Y0033600D01*
X0129600Y0033600D01*
X0127200Y0031200D01*
X0127200Y0024856D01*
X0127550Y0024506D01*
X0202252Y0031253D02*
X0202252Y0028252D01*
X0193800Y0019800D01*
X0137644Y0024600D02*
X0137550Y0024506D01*
X0195000Y0016800D02*
X0145256Y0016800D01*
X0137550Y0024506D01*
X0205402Y0031253D02*
X0205402Y0027202D01*
X0195000Y0016800D01*
X0179800Y0113646D02*
X0177550Y0115896D01*
X0177550Y0124900D01*
X0189500Y0113646D02*
X0187550Y0115596D01*
X0187550Y0124900D01*
X0199700Y0113746D02*
X0197550Y0115896D01*
X0197550Y0124900D01*
X0209900Y0113546D02*
X0207550Y0115896D01*
X0207550Y0124900D01*
X0219200Y0113646D02*
X0217550Y0115296D01*
X0217550Y0124900D01*
X0228500Y0113746D02*
X0227550Y0114696D01*
X0227550Y0124900D01*
X0238400Y0113846D02*
X0237550Y0114696D01*
X0237550Y0124900D01*
X0248600Y0113946D02*
X0247550Y0114996D01*
X0247550Y0124900D01*
X0258500Y0114046D02*
X0258500Y0123950D01*
X0257550Y0124900D01*
X0269000Y0114146D02*
X0269000Y0123450D01*
X0267550Y0124900D01*
X0279200Y0114246D02*
X0279200Y0123250D01*
X0277550Y0124900D01*
X0289600Y0114346D02*
X0289600Y0122850D01*
X0287550Y0124900D01*
X0299500Y0114446D02*
X0299500Y0122950D01*
X0297550Y0124900D01*
X0310000Y0114546D02*
X0310000Y0122450D01*
X0307550Y0124900D01*
X0320200Y0114346D02*
X0320200Y0122250D01*
X0317550Y0124900D01*
X0329800Y0114446D02*
X0329800Y0122650D01*
X0327550Y0124900D01*
X0339000Y0114346D02*
X0339000Y0123450D01*
X0337550Y0124900D01*
X0348200Y0114546D02*
X0348200Y0124250D01*
X0347550Y0124900D01*
X0230598Y0031253D02*
X0230598Y0026802D01*
X0234600Y0022800D01*
X0285600Y0022800D01*
X0291600Y0028800D01*
X0291600Y0019800D02*
X0308700Y0036900D01*
X0227449Y0031253D02*
X0227449Y0025751D01*
X0233400Y0019800D01*
X0291600Y0019800D01*
X0308700Y0036900D02*
X0308700Y0041700D01*
X0309000Y0042000D01*
X0367800Y0063654D02*
X0368000Y0063854D01*
X0158400Y0069600D02*
X0177000Y0069600D01*
X0179400Y0067200D01*
X0194651Y0067200D01*
X0194853Y0066998D01*
X0367800Y0063654D02*
X0361854Y0063654D01*
X0357600Y0059400D01*
X0357600Y0049800D01*
X0377800Y0070746D02*
X0377600Y0070546D01*
X0372600Y0070546D01*
X0368000Y0070546D01*
X0372000Y0078000D02*
X0372000Y0071146D01*
X0372600Y0070546D01*
X0202252Y0077547D02*
X0199653Y0079947D01*
X0197400Y0082200D01*
X0248800Y0083746D02*
X0252000Y0083746D01*
X0257400Y0083746D01*
X0248800Y0083746D02*
X0241546Y0083746D01*
X0240600Y0081600D01*
X0265800Y0087600D02*
X0253200Y0087600D01*
X0252000Y0086400D01*
X0252000Y0083746D01*
X0256200Y0033854D02*
X0265200Y0033854D01*
X0211701Y0031253D02*
X0211701Y0037701D01*
X0212400Y0038400D01*
X0234600Y0038400D01*
X0244200Y0028800D01*
X0202252Y0039052D02*
X0202252Y0077547D01*
X0162229Y0084000D02*
X0161400Y0084000D01*
X0202252Y0039052D02*
X0195000Y0031800D01*
X0244200Y0028800D02*
X0255600Y0028800D01*
X0256200Y0029400D01*
X0256200Y0033854D01*
X0388200Y0111800D02*
X0386200Y0109800D01*
X0373800Y0109800D01*
X0370200Y0113400D01*
X0370200Y0115454D01*
X0368654Y0115454D01*
X0362400Y0109200D01*
X0338400Y0087346D02*
X0338400Y0094200D01*
X0339600Y0095400D01*
X0351000Y0095400D01*
X0353400Y0097800D01*
X0353400Y0106800D01*
X0355800Y0109200D01*
X0362400Y0109200D01*
X0388800Y0101200D02*
X0376854Y0101200D01*
X0370800Y0095146D01*
X0366346Y0095146D01*
X0364200Y0093000D01*
X0364200Y0081000D01*
X0365400Y0079800D01*
X0370200Y0079800D01*
X0372000Y0078000D01*
X0161400Y0084000D02*
X0161400Y0087000D01*
X0168600Y0094200D01*
X0265200Y0033854D02*
X0271546Y0033854D01*
X0273600Y0031800D01*
X0234600Y0069600D02*
X0234600Y0070200D01*
X0241147Y0070200D02*
X0241147Y0070148D01*
X0208800Y0077298D02*
X0208551Y0077547D01*
X0257400Y0077054D02*
X0248800Y0077054D01*
X0245654Y0077054D01*
X0241200Y0072600D01*
X0241200Y0070201D01*
X0241147Y0070148D01*
X0187800Y0090946D02*
X0178200Y0090946D01*
X0208551Y0077547D02*
X0208551Y0086649D01*
X0202800Y0092400D01*
X0189254Y0092400D01*
X0187800Y0090946D01*
X0265200Y0076800D02*
X0257054Y0076800D01*
X0257400Y0077054D01*
X0256200Y0040546D02*
X0265200Y0040546D01*
X0241147Y0041802D02*
X0251945Y0041802D01*
X0256200Y0040546D01*
X0241147Y0070200D02*
X0234600Y0070200D01*
X0208800Y0077298D02*
X0208800Y0069600D01*
X0234600Y0069600D01*
X0182054Y0076200D02*
X0177600Y0076200D01*
X0173400Y0075000D01*
X0241147Y0041802D02*
X0235998Y0041802D01*
X0233400Y0044400D01*
X0233400Y0068400D01*
X0234600Y0069600D01*
X0377800Y0064054D02*
X0377800Y0061600D01*
X0375000Y0057600D01*
X0243346Y0093600D02*
X0270000Y0093600D01*
X0271800Y0091800D01*
X0271800Y0078600D01*
X0270000Y0076800D01*
X0265200Y0076800D01*
X0307660Y0063469D02*
X0303731Y0063469D01*
X0301200Y0066000D01*
X0301200Y0083400D01*
X0308400Y0090600D01*
X0265200Y0040546D02*
X0271707Y0040546D01*
X0272054Y0040200D01*
X0241147Y0066998D02*
X0266798Y0066998D01*
X0276000Y0076200D01*
X0276000Y0092400D01*
X0271800Y0096600D01*
X0264000Y0096600D01*
X0258600Y0102000D01*
X0258600Y0107254D01*
X0258500Y0107354D01*
X0279000Y0107354D02*
X0279200Y0107554D01*
X0241147Y0060699D02*
X0270099Y0060699D01*
X0283200Y0073800D01*
X0283200Y0096000D01*
X0279600Y0099600D01*
X0279600Y0107154D01*
X0279200Y0107554D01*
X0241147Y0054400D02*
X0272800Y0054400D01*
X0290400Y0072000D01*
X0299400Y0107654D02*
X0299500Y0107754D01*
X0290400Y0072000D02*
X0290400Y0094800D01*
X0300000Y0104400D01*
X0300000Y0107254D01*
X0299500Y0107754D01*
X0241147Y0063849D02*
X0268449Y0063849D01*
X0280200Y0075600D01*
X0280200Y0093000D01*
X0272400Y0100800D01*
X0271800Y0100800D01*
X0268800Y0103800D01*
X0268800Y0107254D01*
X0269000Y0107454D01*
X0241147Y0057550D02*
X0271750Y0057550D01*
X0286800Y0072600D01*
X0286800Y0100800D01*
X0289200Y0103200D01*
X0289200Y0107254D01*
X0289600Y0107654D01*
X0310000Y0107854D02*
X0310200Y0107654D01*
X0241147Y0051250D02*
X0274450Y0051250D01*
X0294000Y0070800D01*
X0294000Y0091854D01*
X0310000Y0107854D01*
X0298800Y0016800D02*
X0324000Y0043200D01*
X0324000Y0100800D01*
X0329800Y0106600D01*
X0329800Y0107754D01*
X0221150Y0031253D02*
X0221150Y0023050D01*
X0230400Y0013800D01*
X0295800Y0013800D01*
X0298800Y0016800D01*
X0300600Y0013800D02*
X0327600Y0041400D01*
X0327600Y0098400D01*
X0331800Y0102600D01*
X0338400Y0102600D01*
X0339000Y0103200D01*
X0339000Y0107654D01*
X0218000Y0031253D02*
X0218000Y0022000D01*
X0229800Y0010200D01*
X0297000Y0010200D01*
X0300600Y0013800D01*
X0298800Y0007200D02*
X0331200Y0039600D01*
X0331200Y0096600D01*
X0333600Y0099000D01*
X0347400Y0099000D01*
X0348200Y0099800D01*
X0348200Y0107854D01*
X0214850Y0031253D02*
X0214850Y0020950D01*
X0228600Y0007200D01*
X0298800Y0007200D01*
X0297000Y0019800D02*
X0321000Y0045600D01*
X0321000Y0106854D01*
X0320200Y0107654D01*
X0224299Y0031253D02*
X0224299Y0024101D01*
X0231600Y0016800D01*
X0294000Y0016800D01*
X0297000Y0019800D01*
X0194853Y0070148D02*
X0194798Y0070148D01*
X0188746Y0076200D01*
X0178200Y0084254D02*
X0187800Y0084254D01*
X0190454Y0084254D01*
X0194400Y0088200D01*
X0201600Y0088200D01*
X0205402Y0084398D01*
X0205402Y0077547D01*
X0170171Y0084000D02*
X0177946Y0084000D01*
X0178200Y0084254D01*
X0241147Y0044951D02*
X0277249Y0044951D01*
X0279000Y0043200D01*
X0279000Y0040454D01*
X0278746Y0040200D01*
X0283454Y0040200D01*
X0285254Y0038400D01*
X0379800Y0115454D02*
X0381146Y0116800D01*
X0388200Y0116800D01*
X0360600Y0099600D02*
X0364800Y0100200D01*
X0369000Y0106200D01*
X0389400Y0106200D01*
X0394200Y0110400D01*
X0394200Y0114600D01*
X0392400Y0116400D01*
X0388600Y0116400D01*
X0388200Y0116800D01*
X0241147Y0048101D02*
X0275501Y0048101D01*
X0297600Y0070200D01*
X0297600Y0090000D01*
X0312600Y0100200D02*
X0307800Y0100200D01*
X0297600Y0090000D01*
X0241147Y0038652D02*
X0246348Y0038652D01*
X0248400Y0035400D01*
X0338400Y0046800D02*
X0338400Y0080654D01*
X0351600Y0080400D02*
X0338654Y0080400D01*
X0338400Y0080654D01*
X0233748Y0031253D02*
X0233748Y0027852D01*
X0235800Y0025800D01*
X0277200Y0025800D01*
X0282600Y0029400D01*
X0230598Y0077547D02*
X0230598Y0097398D01*
X0232800Y0099600D01*
X0243000Y0099600D01*
X0248400Y0105000D01*
X0248400Y0107054D01*
X0248600Y0107254D01*
X0227449Y0077547D02*
X0227449Y0098449D01*
X0231600Y0102600D01*
X0237600Y0102600D01*
X0238200Y0103200D01*
X0238200Y0106954D01*
X0238400Y0107154D01*
X0224299Y0077547D02*
X0224299Y0101299D01*
X0225600Y0102600D01*
X0227400Y0102600D01*
X0228600Y0103800D01*
X0228600Y0106954D01*
X0228500Y0107054D01*
X0221150Y0077547D02*
X0221150Y0098050D01*
X0218400Y0100800D01*
X0218400Y0106154D01*
X0219200Y0106954D01*
X0218000Y0077547D02*
X0218000Y0093400D01*
X0210000Y0101400D01*
X0210000Y0106754D01*
X0209900Y0106854D01*
X0214850Y0077547D02*
X0214850Y0088750D01*
X0199800Y0103800D01*
X0199800Y0106954D01*
X0199700Y0107054D01*
X0211701Y0077547D02*
X0211701Y0087699D01*
X0204000Y0095400D01*
X0191400Y0095400D01*
X0189600Y0097200D01*
X0189600Y0106854D01*
X0189500Y0106954D01*
X0208800Y0021000D02*
X0208551Y0021849D01*
X0208551Y0031253D01*
X0308654Y0053400D02*
X0293400Y0053400D01*
X0288000Y0048000D01*
X0079800Y0013800D02*
X0142800Y0013800D01*
X0145200Y0011400D01*
X0204000Y0011400D01*
X0208800Y0016200D01*
X0208800Y0021000D01*
X0194853Y0063849D02*
X0135951Y0063849D01*
X0132600Y0067200D01*
X0233748Y0077547D02*
X0233748Y0090694D01*
X0236654Y0093600D01*
X0388200Y0121800D02*
X0380146Y0121800D01*
X0379800Y0122146D01*
X0370200Y0122146D01*
X0370800Y0088454D02*
X0374146Y0088454D01*
X0381000Y0081600D01*
X0388400Y0081600D01*
X0388800Y0081200D01*
X0311400Y0072131D02*
X0311400Y0079800D01*
X0313800Y0082200D01*
X0388200Y0121800D02*
X0393600Y0121800D01*
X0399000Y0119400D01*
X0399000Y0084600D01*
X0393000Y0081600D01*
X0389200Y0081600D01*
X0388800Y0081200D01*
X0194853Y0060699D02*
X0127101Y0060699D01*
X0126000Y0061800D01*
X0126000Y0086400D01*
X0127200Y0087600D01*
X0140400Y0087600D01*
X0146400Y0093600D01*
X0152400Y0093600D01*
X0156000Y0097200D01*
X0162600Y0097200D01*
X0168000Y0102600D01*
X0175446Y0102600D01*
X0179800Y0106954D01*
X0194853Y0057550D02*
X0124850Y0057550D01*
X0123000Y0059400D01*
X0123000Y0089400D01*
X0124200Y0090600D01*
X0139200Y0090600D01*
X0144600Y0096000D01*
X0150000Y0096000D01*
X0154200Y0100200D01*
X0161400Y0100200D01*
X0167400Y0106200D01*
X0169546Y0106200D01*
X0170200Y0106854D01*
X0194853Y0054400D02*
X0122600Y0054400D01*
X0119400Y0057600D01*
X0119400Y0090600D01*
X0122400Y0093600D01*
X0138000Y0093600D01*
X0143400Y0099000D01*
X0148200Y0099000D01*
X0152400Y0103200D01*
X0155346Y0103200D01*
X0159100Y0106954D01*
X0194853Y0051250D02*
X0120950Y0051250D01*
X0115800Y0056400D01*
X0115800Y0091200D01*
X0121200Y0096600D01*
X0136800Y0096600D01*
X0142200Y0102000D01*
X0147000Y0102000D01*
X0148800Y0103800D01*
X0148800Y0106954D01*
X0148900Y0107054D01*
X0194853Y0048101D02*
X0119299Y0048101D01*
X0112200Y0055200D01*
X0112200Y0091800D01*
X0120000Y0099600D01*
X0135000Y0099600D01*
X0138600Y0103200D01*
X0138600Y0107054D01*
X0138700Y0107154D01*
X0194853Y0044951D02*
X0118249Y0044951D01*
X0108600Y0054600D01*
X0108600Y0092400D01*
X0118800Y0102600D01*
X0126600Y0102600D01*
X0128400Y0104400D01*
X0128400Y0107154D01*
X0128500Y0107254D01*
X0194853Y0041802D02*
X0117198Y0041802D01*
X0105000Y0054000D01*
X0105000Y0094054D01*
X0118300Y0107354D01*
X0315140Y0063469D02*
X0315140Y0053606D01*
X0315346Y0053400D01*
X0055200Y0016200D02*
X0064800Y0016200D01*
X0073800Y0007200D01*
X0220800Y0007200D01*
X0224400Y0003600D01*
X0291946Y0038400D02*
X0299400Y0038400D01*
X0224400Y0003600D02*
X0303600Y0003600D01*
X0315600Y0015600D01*
X0350400Y0015600D01*
X0355200Y0020400D01*
X0355200Y0034200D01*
X0357000Y0036000D01*
X0095350Y0083450D02*
X0016609Y0083450D01*
X0016609Y0122820D01*
X0095350Y0122820D01*
X0095350Y0083450D01*
D11*
X0059100Y0074303D02*
X0054830Y0074303D01*
X0052655Y0071100D02*
X0052655Y0077505D01*
X0049452Y0077505D01*
X0048384Y0076438D01*
X0048384Y0075370D01*
X0049452Y0074303D01*
X0048384Y0073235D01*
X0048384Y0072168D01*
X0049452Y0071100D01*
X0052655Y0071100D01*
X0052655Y0074303D02*
X0049452Y0074303D01*
X0046209Y0071100D02*
X0046209Y0075370D01*
X0044074Y0077505D01*
X0041939Y0075370D01*
X0041939Y0071100D01*
X0041939Y0074303D02*
X0046209Y0074303D01*
X0037628Y0077505D02*
X0037628Y0071100D01*
X0039764Y0077505D02*
X0035493Y0077505D01*
X0040430Y0025103D02*
X0044700Y0025103D01*
X0042565Y0027238D02*
X0042565Y0022968D01*
X0038255Y0021900D02*
X0038255Y0028305D01*
X0035052Y0028305D01*
X0033984Y0027238D01*
X0033984Y0026170D01*
X0035052Y0025103D01*
X0033984Y0024035D01*
X0033984Y0022968D01*
X0035052Y0021900D01*
X0038255Y0021900D01*
X0038255Y0025103D02*
X0035052Y0025103D01*
X0031809Y0021900D02*
X0031809Y0026170D01*
X0029674Y0028305D01*
X0027539Y0026170D01*
X0027539Y0021900D01*
X0027539Y0025103D02*
X0031809Y0025103D01*
X0023228Y0028305D02*
X0023228Y0021900D01*
X0025364Y0028305D02*
X0021093Y0028305D01*
D12*
X0248800Y0083746D03*
X0248800Y0077054D03*
X0377800Y0070746D03*
X0377800Y0064054D03*
X0257400Y0083746D03*
X0257400Y0077054D03*
X0187800Y0084254D03*
X0187800Y0090946D03*
X0178200Y0084254D03*
X0178200Y0090946D03*
X0256200Y0033854D03*
X0256200Y0040546D03*
X0265200Y0033854D03*
X0265200Y0040546D03*
X0370200Y0115454D03*
X0370200Y0122146D03*
X0370800Y0095146D03*
X0370800Y0088454D03*
X0308654Y0053400D03*
X0315346Y0053400D03*
X0291946Y0038400D03*
X0285254Y0038400D03*
D13*
X0241147Y0070148D03*
X0241147Y0066998D03*
X0241147Y0063849D03*
X0241147Y0060699D03*
X0241147Y0057550D03*
X0241147Y0054400D03*
X0241147Y0051250D03*
X0241147Y0048101D03*
X0241147Y0044951D03*
X0241147Y0041802D03*
X0241147Y0038652D03*
X0194853Y0038652D03*
X0194853Y0041802D03*
X0194853Y0044951D03*
X0194853Y0048101D03*
X0194853Y0051250D03*
X0194853Y0054400D03*
X0194853Y0057550D03*
X0194853Y0060699D03*
X0194853Y0063849D03*
X0194853Y0066998D03*
X0194853Y0070148D03*
D14*
X0233748Y0031253D03*
X0230598Y0031253D03*
X0227449Y0031253D03*
X0224299Y0031253D03*
X0221150Y0031253D03*
X0218000Y0031253D03*
X0214850Y0031253D03*
X0211701Y0031253D03*
X0208551Y0031253D03*
X0205402Y0031253D03*
X0202252Y0031253D03*
X0202252Y0077547D03*
X0205402Y0077547D03*
X0208551Y0077547D03*
X0211701Y0077547D03*
X0214850Y0077547D03*
X0218000Y0077547D03*
X0221150Y0077547D03*
X0224299Y0077547D03*
X0227449Y0077547D03*
X0230598Y0077547D03*
X0233748Y0077547D03*
D15*
X0117550Y0124900D03*
X0127550Y0124900D03*
X0137550Y0124900D03*
X0147550Y0124900D03*
X0157550Y0124900D03*
X0167550Y0124900D03*
X0177550Y0124900D03*
X0187550Y0124900D03*
X0197550Y0124900D03*
X0207550Y0124900D03*
X0217550Y0124900D03*
X0227550Y0124900D03*
X0237550Y0124900D03*
X0247550Y0124900D03*
X0257550Y0124900D03*
X0267550Y0124900D03*
X0277550Y0124900D03*
X0287550Y0124900D03*
X0297550Y0124900D03*
X0307550Y0124900D03*
X0317550Y0124900D03*
X0327550Y0124900D03*
X0337550Y0124900D03*
X0347550Y0124900D03*
X0117550Y0024506D03*
X0127550Y0024506D03*
X0137550Y0024506D03*
X0347550Y0024506D03*
X0337550Y0024506D03*
X0327550Y0024506D03*
X0389000Y0062400D03*
X0389000Y0052400D03*
X0389000Y0042400D03*
X0389000Y0032400D03*
X0050400Y0025800D03*
D16*
X0258500Y0114046D03*
X0258500Y0107354D03*
X0248600Y0107254D03*
X0248600Y0113946D03*
X0238400Y0107154D03*
X0238400Y0113846D03*
X0228500Y0107054D03*
X0228500Y0113746D03*
X0219200Y0106954D03*
X0219200Y0113646D03*
X0209900Y0106854D03*
X0209900Y0113546D03*
X0199700Y0107054D03*
X0199700Y0113746D03*
X0189500Y0106954D03*
X0189500Y0113646D03*
X0179800Y0106954D03*
X0179800Y0113646D03*
X0348200Y0114546D03*
X0348200Y0107854D03*
X0118300Y0107354D03*
X0118300Y0114046D03*
X0368000Y0063854D03*
X0368000Y0070546D03*
X0128500Y0107254D03*
X0128500Y0113946D03*
X0138700Y0107154D03*
X0138700Y0113846D03*
X0148900Y0107054D03*
X0148900Y0113746D03*
X0159100Y0106954D03*
X0159100Y0113646D03*
X0170200Y0106854D03*
X0170200Y0113546D03*
X0269000Y0114146D03*
X0269000Y0107454D03*
X0279200Y0114246D03*
X0279200Y0107554D03*
X0289600Y0114346D03*
X0289600Y0107654D03*
X0299500Y0114446D03*
X0299500Y0107754D03*
X0310000Y0114546D03*
X0310000Y0107854D03*
X0320200Y0114346D03*
X0320200Y0107654D03*
X0329800Y0114446D03*
X0329800Y0107754D03*
X0339000Y0114346D03*
X0339000Y0107654D03*
X0188746Y0076200D03*
X0182054Y0076200D03*
X0379800Y0122146D03*
X0379800Y0115454D03*
X0338400Y0080654D03*
X0338400Y0087346D03*
X0243346Y0093600D03*
X0236654Y0093600D03*
X0278746Y0040200D03*
X0272054Y0040200D03*
D17*
X0389000Y0072400D03*
D18*
X0162229Y0084000D03*
X0170171Y0084000D03*
D19*
X0388200Y0121800D03*
D20*
X0388200Y0116800D03*
X0388200Y0111800D03*
D21*
X0386200Y0101200D02*
X0391400Y0101200D01*
X0391400Y0081200D02*
X0386200Y0081200D01*
X0386200Y0091200D02*
X0391400Y0091200D01*
D22*
X0311400Y0072131D03*
X0307660Y0063469D03*
X0315140Y0063469D03*
D23*
X0051800Y0063600D02*
X0041800Y0063600D01*
D24*
X0118300Y0114046D02*
X0118300Y0124150D01*
X0117550Y0124900D01*
X0128500Y0113946D02*
X0128500Y0123950D01*
X0127550Y0124900D01*
X0138700Y0113846D02*
X0138700Y0123750D01*
X0137550Y0124900D01*
X0148900Y0113746D02*
X0148900Y0123550D01*
X0147550Y0124900D01*
X0159100Y0113646D02*
X0159100Y0123350D01*
X0157550Y0124900D01*
X0170200Y0113546D02*
X0170200Y0122250D01*
X0167550Y0124900D01*
X0025800Y0040200D02*
X0051600Y0040200D01*
X0061800Y0049200D01*
X0009000Y0009600D02*
X0044400Y0009600D01*
X0048600Y0016200D01*
D25*
X0291600Y0028800D03*
X0309000Y0042000D03*
X0357600Y0049800D03*
X0158400Y0069600D03*
X0372000Y0078000D03*
X0197400Y0082200D03*
X0168600Y0094200D03*
X0240600Y0081600D03*
X0265800Y0087600D03*
X0195000Y0031800D03*
X0273600Y0031800D03*
X0362400Y0109200D03*
X0265200Y0076800D03*
X0173400Y0075000D03*
X0375000Y0057600D03*
X0308400Y0090600D03*
X0025800Y0040200D03*
X0061800Y0049200D03*
X0312600Y0100200D03*
X0360600Y0099600D03*
X0248400Y0035400D03*
X0338400Y0046800D03*
X0282600Y0029400D03*
X0351600Y0080400D03*
X0288000Y0048000D03*
X0208800Y0021000D03*
X0079800Y0013800D03*
X0132600Y0067200D03*
X0313800Y0082200D03*
X0009000Y0009600D03*
X0048600Y0016200D03*
X0357000Y0036000D03*
X0299400Y0038400D03*
X0062400Y0065400D03*
D26*
X0062400Y0064200D01*
X0072000Y0054600D01*
X0072000Y0033000D01*
X0055200Y0016200D01*
X0048600Y0016200D01*
M02*
