G75*
%MOIN*%
%OFA0B0*%
%FSLAX25Y25*%
%IPPOS*%
%LPD*%
%AMOC8*
5,1,8,0,0,1.08239X$1,22.5*
%
%ADD10C,0.01600*%
%ADD11C,0.07600*%
%ADD12R,0.07600X0.07600*%
%ADD13R,0.04756X0.04756*%
%ADD14C,0.04362*%
%ADD15C,0.05200*%
%ADD16R,0.05906X0.11811*%
%ADD17R,0.03937X0.04331*%
%ADD18R,0.02165X0.04724*%
%ADD19R,0.04331X0.05906*%
%ADD20R,0.05906X0.04331*%
%ADD21R,0.04724X0.05906*%
%ADD22R,0.05906X0.04724*%
%ADD23R,0.05709X0.10236*%
%ADD24R,0.10236X0.07874*%
%ADD25R,0.07874X0.10236*%
%ADD26R,0.05433X0.01772*%
%ADD27R,0.08268X0.05906*%
%ADD28R,0.07480X0.09350*%
%ADD29R,0.07480X0.04626*%
%ADD30C,0.10000*%
%ADD31R,0.04724X0.02165*%
%ADD32R,0.04724X0.07098*%
%ADD33R,0.06299X0.07098*%
%ADD34C,0.06600*%
%ADD35C,0.02400*%
%ADD36C,0.04000*%
D10*
X-0403721Y0135701D02*
X0000000Y0135701D01*
X0000000Y0000000D01*
X-0403721Y0000000D01*
X-0403721Y0135701D01*
X-0347550Y0024506D02*
X-0347550Y0012000D01*
X-0117600Y0024506D02*
X-0117600Y0018600D01*
X-0128400Y0007800D01*
X-0343350Y0007800D01*
X-0347550Y0012000D01*
X-0337550Y0016800D02*
X-0337550Y0024506D01*
X-0127200Y0024506D02*
X-0127200Y0017400D01*
X-0133200Y0011400D01*
X-0332150Y0011400D01*
X-0337550Y0016800D01*
X-0327550Y0024506D02*
X-0327550Y0023350D01*
X-0319200Y0015000D01*
X-0147056Y0015000D01*
X-0137550Y0024506D01*
X-0291600Y0028800D02*
X-0318000Y0028800D01*
X-0321600Y0032400D01*
X-0349800Y0032400D01*
X-0354600Y0027600D01*
X-0384200Y0027600D01*
X-0389000Y0032400D01*
X-0333300Y0041100D02*
X-0334200Y0040200D01*
X-0341400Y0040200D01*
X-0345600Y0042600D01*
X-0388800Y0042600D01*
X-0389000Y0042400D01*
X-0333300Y0041100D02*
X-0309900Y0041100D01*
X-0309000Y0042000D01*
X-0349200Y0053400D02*
X-0352800Y0049800D01*
X-0357600Y0049800D01*
X-0349200Y0053400D02*
X-0174600Y0053400D01*
X-0158400Y0069600D01*
X-0389000Y0052400D02*
X-0386400Y0049800D01*
X-0357600Y0049800D01*
X-0389000Y0072400D02*
X-0377600Y0072400D01*
X-0372000Y0078000D01*
X-0174000Y0088800D02*
X-0264600Y0088800D01*
X-0265800Y0087600D01*
X-0269400Y0028800D02*
X-0197400Y0028800D01*
X-0195000Y0031800D01*
X-0362400Y0109200D02*
X-0370600Y0109200D01*
X-0378600Y0101200D01*
X-0388800Y0101200D01*
X-0174000Y0088800D02*
X-0168600Y0094200D01*
X-0362400Y0109200D02*
X-0287400Y0109200D01*
X-0265800Y0087600D01*
X-0273600Y0031800D02*
X-0269400Y0028800D01*
X-0197400Y0082200D02*
X-0240000Y0082200D01*
X-0240600Y0081600D01*
X-0083146Y0111000D02*
X-0151800Y0111000D01*
X-0168600Y0094200D01*
X-0375000Y0057600D02*
X-0303600Y0057600D01*
X-0265800Y0057600D01*
X-0190800Y0057600D01*
X-0173400Y0075000D01*
X-0172800Y0075600D01*
X-0308400Y0090600D02*
X-0303600Y0085800D01*
X-0303600Y0057600D01*
X-0173400Y0075000D02*
X-0150825Y0097575D01*
X-0265200Y0076800D02*
X-0265200Y0058200D01*
X-0265800Y0057600D01*
X-0389000Y0062400D02*
X-0379800Y0062400D01*
X-0375000Y0057600D01*
X-0009000Y0036229D02*
X-0009000Y0027396D01*
X-0014004Y0027396D01*
X-0015600Y0026400D01*
X-0022800Y0026400D01*
X-0022800Y0031518D01*
X-0022800Y0037200D01*
X-0025800Y0040200D01*
X-0089400Y0097575D02*
X-0150825Y0097575D01*
X-0030000Y0081438D02*
X-0015600Y0081438D01*
X-0053118Y0087600D02*
X-0048000Y0087600D01*
X-0038400Y0087600D01*
X-0033600Y0082800D01*
X-0030396Y0082800D01*
X-0030000Y0082404D01*
X-0046800Y0063600D02*
X-0033600Y0063600D01*
X-0033600Y0070200D01*
X-0030000Y0070200D01*
X-0030000Y0082404D01*
X-0043546Y0075600D02*
X-0043546Y0076546D01*
X-0048000Y0081000D01*
X-0048000Y0087600D01*
X-0030000Y0082404D02*
X-0030000Y0081438D01*
X-0312600Y0100200D02*
X-0360000Y0100200D01*
X-0360600Y0099600D01*
X-0335400Y0049200D02*
X-0338400Y0046800D01*
X-0388800Y0091200D02*
X-0362400Y0091200D01*
X-0351600Y0080400D01*
X-0335400Y0049200D02*
X-0299400Y0049200D01*
X-0248400Y0035400D02*
X-0265800Y0035400D01*
X-0270000Y0039600D01*
X-0282600Y0039600D01*
X-0282600Y0029400D02*
X-0282600Y0039000D01*
X-0282600Y0039600D01*
X-0299400Y0049200D02*
X-0289800Y0039600D01*
X-0283200Y0039600D01*
X-0282600Y0039000D01*
X-0288000Y0048000D02*
X-0216000Y0048000D01*
X-0208800Y0040800D01*
X-0208800Y0021000D01*
X-0079800Y0013800D02*
X-0066946Y0013800D01*
X-0132600Y0067200D02*
X-0111600Y0067200D01*
X-0097800Y0053400D01*
X-0097800Y0048000D01*
X-0071900Y0048000D01*
X-0071900Y0097575D01*
X-0313800Y0082200D02*
X-0337800Y0082200D01*
X-0348000Y0072000D01*
X-0352800Y0072000D01*
X-0367200Y0086400D01*
X-0381800Y0086400D01*
X-0388800Y0081200D01*
X-0026540Y0021282D02*
X-0026540Y0013594D01*
X-0026146Y0013200D01*
X-0035050Y0013200D01*
X-0037600Y0015750D01*
X-0299400Y0038400D02*
X-0303000Y0034800D01*
X-0317400Y0034800D01*
X-0319200Y0036600D01*
X-0356400Y0036600D01*
X-0357000Y0036000D01*
X-0053118Y0091340D02*
X-0057460Y0091340D01*
X-0059400Y0089400D01*
X-0059400Y0081600D01*
X-0057600Y0079800D01*
X-0057600Y0070200D01*
X-0062400Y0065400D01*
X-0019454Y0013200D02*
X-0019454Y0020888D01*
X-0019060Y0021282D01*
X-0019454Y0013200D02*
X-0019454Y0008746D01*
X-0021000Y0007200D01*
X-0053654Y0007200D01*
X-0060254Y0013800D01*
X-0020029Y0063600D02*
X-0020029Y0054025D01*
X-0019404Y0053400D01*
X-0019060Y0031518D02*
X-0019060Y0043800D01*
X-0019060Y0053056D01*
X-0019404Y0053400D01*
X-0009000Y0044171D02*
X-0018688Y0044171D01*
X-0019060Y0043800D01*
X-0026540Y0031518D02*
X-0034456Y0031518D01*
X-0034774Y0031200D01*
X-0028596Y0053400D02*
X-0049200Y0053400D01*
X-0054600Y0048000D01*
X-0054600Y0040774D01*
X-0054026Y0040200D01*
X-0027971Y0063600D02*
X-0027971Y0054025D01*
X-0028596Y0053400D01*
X-0053118Y0083400D02*
X-0053118Y0083860D01*
X-0051377Y0075600D02*
X-0051377Y0078977D01*
X-0053400Y0081000D01*
X-0053400Y0083578D01*
X-0053118Y0083860D01*
X-0015600Y0091750D02*
X-0025200Y0091750D01*
X-0029846Y0091750D01*
X-0030000Y0091596D01*
X-0025602Y0100200D02*
X-0025602Y0092152D01*
X-0025200Y0091750D01*
X-0042882Y0091340D02*
X-0030256Y0091340D01*
X-0030000Y0091596D01*
X-0036798Y0100200D02*
X-0037398Y0100800D01*
X-0063823Y0075600D02*
X-0063823Y0095777D01*
X-0059400Y0100200D01*
X-0036798Y0100200D01*
X-0043200Y0083542D02*
X-0042882Y0083860D01*
X-0042254Y0083231D01*
X-0036854Y0075600D02*
X-0036854Y0077831D01*
X-0042882Y0083860D01*
D11*
X-0117550Y0124900D03*
X-0127550Y0124900D03*
X-0137550Y0124900D03*
X-0147550Y0124900D03*
X-0157550Y0124900D03*
X-0167550Y0124900D03*
X-0177550Y0124900D03*
X-0187550Y0124900D03*
X-0197550Y0124900D03*
X-0207550Y0124900D03*
X-0217550Y0124900D03*
X-0227550Y0124900D03*
X-0237550Y0124900D03*
X-0247550Y0124900D03*
X-0257550Y0124900D03*
X-0267550Y0124900D03*
X-0277550Y0124900D03*
X-0287550Y0124900D03*
X-0297550Y0124900D03*
X-0307550Y0124900D03*
X-0317550Y0124900D03*
X-0327550Y0124900D03*
X-0337550Y0124900D03*
X-0347550Y0124900D03*
X-0117550Y0024506D03*
X-0127550Y0024506D03*
X-0137550Y0024506D03*
X-0347550Y0024506D03*
X-0337550Y0024506D03*
X-0327550Y0024506D03*
X-0389000Y0062400D03*
X-0389000Y0052400D03*
X-0389000Y0042400D03*
X-0389000Y0032400D03*
X-0050400Y0025800D03*
D12*
X-0389000Y0072400D03*
D13*
X-0388200Y0121800D03*
D14*
X-0388200Y0116800D03*
X-0388200Y0111800D03*
D15*
X-0386200Y0101200D02*
X-0391400Y0101200D01*
X-0391400Y0081200D02*
X-0386200Y0081200D01*
X-0386200Y0091200D02*
X-0391400Y0091200D01*
D16*
X-0089400Y0058200D03*
X-0089400Y0097575D03*
X-0071900Y0058200D03*
X-0071900Y0097575D03*
D17*
X-0076454Y0111000D03*
X-0083146Y0111000D03*
X-0019454Y0013200D03*
X-0026146Y0013200D03*
X-0066946Y0013800D03*
X-0060254Y0013800D03*
X-0043546Y0075600D03*
X-0036854Y0075600D03*
D18*
X-0026540Y0031518D03*
X-0022800Y0031518D03*
X-0019060Y0031518D03*
X-0019060Y0021282D03*
X-0026540Y0021282D03*
D19*
X-0020029Y0063600D03*
X-0027971Y0063600D03*
D20*
X-0009000Y0036229D03*
X-0009000Y0044171D03*
D21*
X-0028596Y0053400D03*
X-0019404Y0053400D03*
D22*
X-0063600Y0030804D03*
X-0063600Y0039996D03*
X-0009000Y0018204D03*
X-0009000Y0027396D03*
X-0096600Y0030804D03*
X-0096600Y0039996D03*
X-0030000Y0091596D03*
X-0030000Y0082404D03*
D23*
X-0054026Y0040200D03*
X-0034774Y0040200D03*
D24*
X-0037600Y0015750D03*
X-0037600Y0028250D03*
D25*
X-0073350Y0032000D03*
X-0085850Y0032000D03*
D26*
X-0015600Y0091750D03*
X-0015600Y0089172D03*
X-0015600Y0086594D03*
X-0015600Y0084016D03*
X-0015600Y0081438D03*
D27*
X-0014350Y0076750D03*
X-0014194Y0096359D03*
D28*
X-0005053Y0075031D03*
X-0005053Y0098000D03*
D29*
X-0005053Y0083156D03*
X-0005053Y0089875D03*
D30*
X-0041800Y0063600D02*
X-0051800Y0063600D01*
D31*
X-0053118Y0083860D03*
X-0053118Y0087600D03*
X-0053118Y0091340D03*
X-0042882Y0091340D03*
X-0042882Y0083860D03*
D32*
X-0063823Y0075600D03*
X-0051377Y0075600D03*
D33*
X-0025602Y0100200D03*
X-0036798Y0100200D03*
D34*
X-0291600Y0028800D03*
X-0309000Y0042000D03*
X-0357600Y0049800D03*
X-0158400Y0069600D03*
X-0372000Y0078000D03*
X-0197400Y0082200D03*
X-0168600Y0094200D03*
X-0240600Y0081600D03*
X-0265800Y0087600D03*
X-0195000Y0031800D03*
X-0273600Y0031800D03*
X-0362400Y0109200D03*
X-0265200Y0076800D03*
X-0173400Y0075000D03*
X-0375000Y0057600D03*
X-0308400Y0090600D03*
X-0025800Y0040200D03*
X-0061800Y0049200D03*
X-0312600Y0100200D03*
X-0360600Y0099600D03*
X-0248400Y0035400D03*
X-0338400Y0046800D03*
X-0282600Y0029400D03*
X-0351600Y0080400D03*
X-0288000Y0048000D03*
X-0208800Y0021000D03*
X-0079800Y0013800D03*
X-0132600Y0067200D03*
X-0313800Y0082200D03*
X-0009000Y0009600D03*
X-0048600Y0016200D03*
X-0357000Y0036000D03*
X-0299400Y0038400D03*
X-0062400Y0065400D03*
D35*
X-0107604Y0030804D02*
X-0115800Y0039000D01*
X-0135600Y0039000D01*
X-0153600Y0021000D01*
X-0184200Y0021000D01*
X-0195000Y0031800D01*
X-0085850Y0032000D02*
X-0087046Y0030804D01*
X-0096600Y0030804D01*
X-0107604Y0030804D01*
X-0096600Y0039996D02*
X-0107196Y0039996D01*
X-0114600Y0047400D01*
X-0144000Y0047400D01*
X-0149400Y0052800D01*
X-0149400Y0079800D01*
X-0168600Y0079800D01*
X-0173400Y0075000D01*
X-0063600Y0039996D02*
X-0065196Y0039996D01*
X-0067200Y0042000D01*
X-0094596Y0042000D01*
X-0096600Y0039996D01*
X-0061800Y0049200D02*
X-0063600Y0045600D01*
X-0063600Y0039996D01*
X-0076454Y0111000D02*
X-0071900Y0106446D01*
X-0071900Y0097575D01*
X-0009000Y0018204D02*
X-0009000Y0009600D01*
X-0048600Y0016200D02*
X-0038050Y0016200D01*
X-0037600Y0015750D01*
X-0034774Y0040200D02*
X-0034774Y0031200D01*
X-0034774Y0031076D01*
X-0037600Y0028250D01*
X-0073150Y0031800D02*
X-0073350Y0032000D01*
X-0063600Y0030804D02*
X-0072154Y0030804D01*
X-0073350Y0032000D01*
X-0063600Y0030804D02*
X-0056796Y0030804D01*
X-0054600Y0033000D01*
X-0054600Y0039626D01*
X-0054026Y0040200D01*
X-0071400Y0097800D02*
X-0072000Y0097800D01*
X-0072000Y0057600D01*
D36*
X-0046800Y0063600D02*
X-0047400Y0063600D01*
X-0061800Y0049200D01*
X-0050400Y0025800D02*
X-0050400Y0018000D01*
X-0048600Y0016200D01*
M02*
