%
M48
M72
T01C0.01200
T02C0.02362
T03C0.02756
T04C0.03150
T05C0.03200
T06C0.03937
T07C0.04331
%
T01
X9000Y9600
X48600Y16200
X79800Y13800
X25800Y40200
X61800Y49200
X62400Y65400
X132600Y67200
X158400Y69600
X173400Y75000
X197400Y82200
X168600Y94200
X240600Y81600
X265200Y76800
X265800Y87600
X308400Y90600
X313800Y82200
X351600Y80400
X372000Y78000
X375000Y57600
X357600Y49800
X338400Y46800
X309000Y42000
X299400Y38400
X288000Y48000
X248400Y35400
X273600Y31800
X282600Y29400
X291600Y28800
X357000Y36000
X208800Y21000
X195000Y31800
X312600Y100200
X360600Y99600
X362400Y109200
T02
X388200Y111800
X388200Y116800
X347550Y124900
X337550Y124900
X327550Y124900
X317550Y124900
X307550Y124900
X297550Y124900
X287550Y124900
X277550Y124900
X267550Y124900
X257550Y124900
X247550Y124900
X237550Y124900
X227550Y124900
X217550Y124900
X207550Y124900
X197550Y124900
X187550Y124900
X177550Y124900
X167550Y124900
X157550Y124900
X147550Y124900
X137550Y124900
X127550Y124900
X117550Y124900
X117550Y24506
X127550Y24506
X137550Y24506
X327550Y24506
X337550Y24506
X347550Y24506
T03
X388200Y121800
T04
X50400Y25800
T05
X388800Y81200
X388800Y91200
X388800Y101200
T06
X389000Y72400
X389000Y62400
X389000Y52400
X389000Y42400
X389000Y32400
T07
X46800Y63600
M30
